<svg width="50" height="50" viewBox="0 0 50 50" fill="none" xmlns="http://www.w3.org/2000/svg">
<g clip-path="url(#clip0_9_65)">
<path d="M25 40C33.2843 40 40 33.2843 40 25C40 16.7157 33.2843 10 25 10C16.7157 10 10 16.7157 10 25C10 33.2843 16.7157 40 25 40Z" fill="#4E6E91"/>
<path d="M25 41.5C15.902 41.5 8.5 34.098 8.5 25C8.5 15.902 15.902 8.5 25 8.5C34.098 8.5 41.5 15.902 41.5 25C41.5 34.098 34.098 41.5 25 41.5ZM25 11C17.2805 11 11 17.2805 11 25C11 32.7195 17.2805 39 25 39C32.7195 39 39 32.7195 39 25C39 17.2805 32.7195 11 25 11Z" fill="#6693C1"/>
<path d="M34.7285 24.5195C34.7285 22.859 34.076 21.3525 33.019 20.233C33.217 19.1315 33.1945 17.5825 32.75 16.25C30.5125 16.25 28.693 17.9735 28.399 18.25H21.997C21.7025 17.974 19.9875 16.25 17.75 16.25C17.35 17.4505 17.2065 18.8665 17.327 19.8975C16.068 21.0405 15.273 22.685 15.273 24.52C15.273 27.974 18.0725 30.7495 21.5265 30.7495H22.75C21.7485 31.208 20.9325 32.1275 20.75 33.2495C19.75 33.2495 18.318 33.1585 17.6595 32.1705C16.4295 30.3255 15.8645 30.3255 15.25 30.3255C14.635 30.3255 14.585 30.9405 15.2 31.5555C15.815 32.1705 15.815 32.1705 16.43 33.4005C16.936 34.414 18.25 35.25 20.75 35.25V38.55C20.75 38.55 23.923 39.25 25 39.25C26.077 39.25 29.25 38.55 29.25 38.55V33.8275C29.25 32.4685 28.4095 31.2815 27.25 30.75H28.4745C31.929 30.75 34.7285 27.9735 34.7285 24.5195Z" fill="#EEECD9"/>
<path d="M25 42.5C15.3505 42.5 7.5 34.6495 7.5 25C7.5 15.3505 15.3505 7.5 25 7.5C34.6495 7.5 42.5 15.3505 42.5 25C42.5 34.6495 34.6495 42.5 25 42.5ZM25 8.5C15.902 8.5 8.5 15.902 8.5 25C8.5 34.098 15.902 41.5 25 41.5C34.098 41.5 41.5 34.098 41.5 25C41.5 15.902 34.098 8.5 25 8.5Z" fill="#1F212B"/>
<path d="M25 39.5C17.005 39.5 10.5 32.9955 10.5 25C10.5 17.0045 17.005 10.5 25 10.5C32.995 10.5 39.5 17.0045 39.5 25C39.5 26.4625 39.2825 27.906 38.8545 29.291C38.8135 29.4225 38.6725 29.4965 38.542 29.456C38.41 29.415 38.336 29.2755 38.377 29.1435C38.7905 27.806 39 26.4125 39 25C39 17.2805 32.7195 11 25 11C17.2805 11 11 17.2805 11 25C11 32.7195 17.2805 39 25 39C27.928 39 30.732 38.106 33.1085 36.4145C33.221 36.3345 33.3765 36.361 33.457 36.473C33.537 36.5855 33.5105 36.7415 33.3985 36.8215C30.9365 38.5735 28.0325 39.5 25 39.5Z" fill="#1F212B"/>
<path d="M34.3155 36.034C34.2455 36.034 34.176 36.0045 34.1265 35.9475C34.036 35.843 34.0475 35.685 34.152 35.5945C34.5215 35.2755 34.878 34.9325 35.213 34.576C35.307 34.475 35.4655 34.471 35.566 34.5645C35.6665 34.659 35.672 34.817 35.5775 34.918C35.231 35.2875 34.861 35.6425 34.479 35.973C34.4315 36.014 34.3735 36.034 34.3155 36.034Z" fill="#1F212B"/>
<path d="M36.247 34.001C36.1935 34.001 36.139 33.9835 36.093 33.9485C35.984 33.8635 35.9645 33.7065 36.0495 33.5975C36.874 32.5385 37.5405 31.3715 38.031 30.1285C38.0815 29.9995 38.227 29.9375 38.355 29.9875C38.4835 30.0385 38.5465 30.1835 38.4955 30.3115C37.988 31.599 37.2975 32.808 36.4435 33.9045C36.395 33.968 36.3215 34.001 36.247 34.001Z" fill="#1F212B"/>
<path d="M29.25 38.8C29.112 38.8 29 38.688 29 38.55V33.8275C29 32.612 28.272 31.4935 27.146 30.977C27.039 30.928 26.9805 30.811 27.006 30.6965C27.031 30.582 27.1325 30.5 27.25 30.5H28.4745C31.785 30.5 34.4785 27.817 34.4785 24.5195C34.4785 22.9875 33.8955 21.526 32.8375 20.405C32.783 20.3475 32.759 20.2675 32.773 20.189C32.9395 19.262 32.968 17.8265 32.5685 16.504C30.7275 16.585 29.171 17.8665 28.575 18.428C28.5285 18.4715 28.4625 18.5 28.399 18.5H21.9965C21.933 18.5 21.872 18.476 21.8255 18.4325L21.7795 18.389C20.2405 16.9255 18.865 16.546 17.931 16.504C17.6 17.585 17.4605 18.885 17.575 19.8685C17.5845 19.9485 17.554 20.028 17.4945 20.0825C16.2415 21.22 15.523 22.8375 15.523 24.52C15.523 27.8175 18.2165 30.5 21.5265 30.5H22.75C22.8675 30.5 22.969 30.582 22.994 30.697C23.0195 30.8115 22.961 30.9285 22.854 30.9775C21.867 31.4295 21.1555 32.3155 20.9965 33.29C20.977 33.411 20.8725 33.5 20.75 33.5C19.5835 33.5 18.1545 33.3645 17.451 32.31C16.2955 30.5765 15.811 30.5765 15.2495 30.5765C15.1795 30.5765 15.057 30.588 15.0255 30.6655C14.9825 30.7685 15.041 31.0435 15.3765 31.3795C16.02 32.023 16.032 32.047 16.6535 33.2895C17.2045 34.3925 18.6595 35 20.75 35C20.888 35 21 35.112 21 35.25V38.55C21 38.688 20.888 38.8 20.75 38.8C20.612 38.8 20.5 38.688 20.5 38.55V35.4975C17.6015 35.432 16.567 34.235 16.206 33.513C15.609 32.3195 15.609 32.3195 15.023 31.733C14.5885 31.2985 14.4165 30.828 14.5635 30.474C14.668 30.2215 14.918 30.0765 15.2495 30.0765C16.0435 30.0765 16.6545 30.2125 17.867 32.0325C18.4015 32.8345 19.5465 32.9825 20.545 32.9985C20.726 32.226 21.1995 31.516 21.86 31H21.526C17.94 31 15.0225 28.0935 15.0225 24.5205C15.0225 22.7395 15.765 21.0265 17.0645 19.7995C16.96 18.698 17.1285 17.3215 17.5125 16.171C17.547 16.069 17.6425 16 17.75 16C18.768 16 20.346 16.348 22.096 18H28.3005C29.014 17.3445 30.724 16 32.7495 16C32.857 16 32.9525 16.069 32.987 16.171C33.4545 17.572 33.451 19.1215 33.286 20.1535C34.3785 21.3555 34.9785 22.901 34.9785 24.5195C34.9785 28.093 32.061 31 28.4745 31H28.128C28.9815 31.684 29.5 32.721 29.5 33.8275V38.55C29.5 38.688 29.388 38.8 29.25 38.8Z" fill="#1F212B"/>
<path d="M17.119 22.985C17.0875 22.985 17.0555 22.979 17.025 22.9665C16.897 22.9145 16.8355 22.7685 16.888 22.641C17.126 22.0575 17.4715 21.528 17.9165 21.067C18.0125 20.968 18.171 20.965 18.27 21.0605C18.3695 21.1565 18.3725 21.3145 18.277 21.414C17.876 21.8295 17.5645 22.3055 17.351 22.8295C17.311 22.9265 17.218 22.985 17.119 22.985Z" fill="#1F212B"/>
<path d="M16.83 25.5105C16.7095 25.5105 16.603 25.4225 16.5835 25.2995C16.5435 25.0445 16.523 24.7825 16.523 24.5205C16.523 24.254 16.544 23.987 16.585 23.7255C16.607 23.589 16.7375 23.496 16.871 23.5175C17.007 23.539 17.1005 23.667 17.079 23.8035C17.042 24.039 17.023 24.28 17.023 24.5205C17.023 24.7565 17.0415 24.992 17.0775 25.2215C17.099 25.358 17.0055 25.486 16.8695 25.5075C16.8565 25.5095 16.8435 25.5105 16.83 25.5105Z" fill="#1F212B"/>
<path d="M20.7285 29.457C20.7145 29.457 20.7 29.456 20.686 29.4535C18.965 29.161 17.5 27.966 16.863 26.3345C16.8125 26.206 16.876 26.061 17.005 26.011C17.133 25.9605 17.2785 26.0245 17.3285 26.153C17.9015 27.622 19.22 28.6975 20.7695 28.9605C20.905 28.9835 20.997 29.113 20.974 29.249C20.9535 29.3705 20.848 29.457 20.7285 29.457Z" fill="#1F212B"/>
</g>
<defs>
<clipPath id="clip0_9_65">
<rect width="50" height="50" fill="white"/>
</clipPath>
</defs>
</svg>
