<svg width="1440" height="1024" viewBox="0 0 1440 1024" fill="none" xmlns="http://www.w3.org/2000/svg">
<path d="M436.2 824.6C527.8 824.6 619.4 824.6 711 824.6C802.3 824.6 893.6 824.6 984.8 824.6C1036.4 824.6 1088.1 824.6 1139.7 824.6C1141.6 824.6 1141.6 821.6 1139.7 821.6C1048.1 821.6 956.5 821.6 864.9 821.6C773.6 821.6 682.3 821.6 591.1 821.6C539.5 821.6 487.8 821.6 436.2 821.6C434.3 821.6 434.3 824.6 436.2 824.6Z" fill="#E8E8E8"/>
<path d="M1158.2 762.4C1157.4 791.2 1160.3 820 1166.9 848.1C1167.3 850 1170.2 849.2 1169.8 847.3C1163.3 819.5 1160.4 791 1161.3 762.4C1161.2 760.5 1158.2 760.5 1158.2 762.4Z" fill="#E8E8E8"/>
<path d="M1277.3 764.7C1280.1 791.3 1278.4 818.2 1272.3 844.2C1271.9 846.1 1274.7 846.9 1275.2 845C1281.4 818.7 1283.2 791.6 1280.3 764.7C1280.1 762.8 1277.1 762.8 1277.3 764.7Z" fill="#E8E8E8"/>
<path d="M1168.1 850.9C1202.7 859.7 1239.3 858.5 1273.2 847.3C1275 846.7 1274.2 843.8 1272.4 844.4C1238.9 855.4 1203 856.7 1168.9 848C1167 847.6 1166.2 850.5 1168.1 850.9Z" fill="#E8E8E8"/>
<path d="M1159.6 763.8C1198.5 772.1 1238.8 771.9 1277.6 763.3C1279.5 762.9 1278.7 760 1276.8 760.4C1238.5 768.9 1198.7 769 1160.4 760.9C1158.5 760.5 1157.7 763.4 1159.6 763.8Z" fill="#E8E8E8"/>
<path d="M1183.3 764.9C1178.1 753.2 1182.8 738.9 1186.7 727.4C1190.7 715.5 1196.4 704.2 1203.4 693.8C1202.6 693.9 1201.8 694 1201 694.1C1203.3 696.7 1205.8 698.5 1208.9 700C1210.1 700.5 1211.4 699.7 1211.1 698.3C1209.9 692.9 1207.8 687.6 1210.2 682.2C1211.9 678.4 1214.3 674.6 1216.3 671C1215.6 671.2 1214.9 671.4 1214.2 671.5C1216.3 672.8 1218.4 674 1220.5 675.3C1221.9 676.2 1223.1 674.5 1222.6 673.2C1220.5 668.6 1219.1 664 1222 659.4C1223.7 656.6 1225.9 654.1 1227.8 651.5C1232 645.9 1236.4 640.3 1240.8 634.8C1249.2 624.3 1257.9 614.1 1266.9 604.1C1266.1 604 1265.3 603.9 1264.5 603.8C1277.3 620.6 1285.4 640.7 1287.6 661.7C1288.7 671.8 1288.4 682.2 1286.6 692.2C1285.7 697.3 1284.4 702.3 1282.8 707.2C1282.5 708.2 1282.1 709.2 1281.8 710.1C1280.7 712.9 1278.9 714.1 1276 714.7C1274 715.1 1272.9 714.8 1271.2 716.1C1270.4 716.7 1270.2 717.7 1270.9 718.5C1273.1 720.8 1274 721.2 1273.2 724.3C1272.7 726.3 1271.5 728.4 1270.6 730.4C1268.8 734.4 1266.8 738.3 1264.7 742.1C1260.4 749.9 1255.5 757.3 1250 764.3C1248.8 765.8 1250.9 767.9 1252.1 766.4C1262.7 752.8 1271.1 737.9 1277.4 721.9C1277.6 721.4 1277.4 720.8 1277 720.4C1275.7 719.1 1274.4 717.7 1273 716.4C1272.9 717.2 1272.8 718 1272.7 718.8C1275 717.2 1277.6 718.3 1280 717.3C1281.9 716.6 1282.9 715.2 1283.7 713.4C1285.9 708.7 1287.3 703.3 1288.5 698.3C1291 687.3 1291.8 676 1291 664.8C1289.3 642.2 1281 620.3 1267.2 602.3C1266.7 601.6 1265.6 601.2 1264.8 602C1253.7 614.3 1243 627 1232.8 640C1228.2 645.8 1223.3 651.6 1219.3 657.9C1215.7 663.6 1217.4 669 1219.9 674.8C1220.6 674.1 1221.3 673.4 1222 672.7C1219.9 671.4 1217.8 670.2 1215.7 668.9C1215 668.5 1214 668.7 1213.6 669.4C1211.1 674 1207.2 679.1 1205.8 684.2C1204.6 688.7 1207.1 694.6 1208.1 699C1208.8 698.4 1209.6 697.9 1210.3 697.3C1207.4 696 1205.1 694.3 1203 691.9C1202.3 691.1 1201.1 691.4 1200.6 692.2C1192.8 703.8 1186.7 716.5 1182.5 729.9C1178.9 741.5 1175.4 754.7 1180.5 766.3C1181.5 768.1 1184.1 766.6 1183.3 764.9Z" fill="#E8E8E8"/>
<path d="M1264.7 626.8C1260.7 672.1 1229.7 708.4 1216.8 751C1216.2 752.9 1219.1 753.6 1219.7 751.8C1232.6 708.9 1263.7 672.5 1267.7 626.8C1267.9 624.8 1264.8 624.9 1264.7 626.8Z" fill="#E8E8E8"/>
<path d="M1226.9 650.9C1230.1 667.4 1233.8 683.7 1238 699.9C1238.5 701.8 1241.4 701 1240.9 699.1C1236.7 682.9 1233 666.5 1229.8 650.1C1229.5 648.2 1226.6 649 1226.9 650.9Z" fill="#E8E8E8"/>
<path d="M1260.7 661.5C1269.4 655.2 1276.9 647.7 1283.4 639C1284.6 637.5 1282 636 1280.8 637.5C1274.7 645.7 1267.5 652.9 1259.2 658.9C1257.7 660.1 1259.2 662.7 1260.7 661.5Z" fill="#E8E8E8"/>
<path d="M1251.4 618.7C1254.1 627.3 1255.7 637.8 1262.3 644.3C1263.7 645.7 1265.8 643.5 1264.4 642.2C1258.3 636.1 1256.7 625.8 1254.2 617.9C1253.7 616.1 1250.8 616.9 1251.4 618.7Z" fill="#E8E8E8"/>
<path d="M1177.3 764.1C1171.2 759.3 1167.5 752.6 1164.4 745.6C1160.9 737.4 1157.9 729 1155.2 720.5C1150.1 704.2 1146.4 687.4 1144.2 670.5C1139.7 635.1 1143.3 599.3 1139 563.8C1138.1 564.1 1137.1 564.3 1136.2 564.6C1147.4 589.8 1173.6 604.9 1195.4 619.9C1195.2 619.2 1195 618.5 1194.9 617.8C1191.9 622.1 1188.9 626.4 1185.9 630.7C1185.2 631.7 1186.1 633 1187.2 633C1191.1 633 1194.5 632.5 1198.2 631.2C1197.6 631 1197.1 630.7 1196.5 630.5C1200.2 636.2 1203.9 641.9 1207.6 647.6C1207.7 647 1207.8 646.4 1207.8 645.8C1206 647.5 1204.5 649.4 1203 651.5C1202.5 652.2 1203 653.6 1203.9 653.7C1212.1 654.9 1215 662.7 1217.1 669.7C1217.7 671.5 1220.6 670.8 1220 668.9C1217.5 661 1213.9 652.1 1204.7 650.8C1205 651.5 1205.3 652.3 1205.6 653C1206.9 651 1208.2 649.6 1209.9 648C1210.4 647.6 1210.5 646.7 1210.1 646.2C1206.4 640.5 1202.7 634.8 1199 629.1C1198.7 628.6 1198 628.2 1197.3 628.4C1193.9 629.5 1190.6 630.1 1187.1 630C1187.5 630.8 1188 631.5 1188.4 632.3C1191.4 628 1194.4 623.7 1197.4 619.4C1197.9 618.7 1197.5 617.8 1196.9 617.3C1175.5 602.6 1149.8 587.9 1138.8 563.1C1138.2 561.8 1135.8 562.4 1136 563.9C1140.4 600.7 1136.5 637.9 1141.7 674.6C1144.2 692.3 1148.3 709.7 1154 726.6C1158.6 740.3 1163.4 757 1175.1 766.3C1176.7 767.4 1178.8 765.3 1177.3 764.1Z" fill="#E8E8E8"/>
<path d="M1136.8 566.8C1144.9 589.2 1151.7 612.8 1162.6 634.1C1168 644.6 1173.9 654.9 1179 665.6C1184.5 677.2 1189.4 689 1194.4 700.7C1195.1 702.5 1197.7 700.9 1197 699.2C1192.3 688 1187.5 676.8 1182.4 665.8C1177.4 655 1171.6 644.7 1166 634.2C1154.8 612.8 1147.9 588.8 1139.6 566.1C1139 564.2 1136.1 565 1136.8 566.8Z" fill="#E8E8E8"/>
<path d="M1140.6 642.8C1151.4 644.1 1163.2 644.7 1171.4 652.8C1172.8 654.2 1174.9 652 1173.5 650.7C1164.7 642.1 1152.2 641.3 1140.6 639.9C1138.7 639.6 1138.7 642.6 1140.6 642.8Z" fill="#E8E8E8"/>
<path d="M1169.5 602.3C1167.7 608.8 1166.5 615.5 1166 622.3C1165.6 628.1 1164.9 634.9 1166.9 640.5C1167.5 642.3 1170.4 641.5 1169.8 639.7C1167.9 634.4 1168.6 627.8 1169 622.2C1169.5 615.7 1170.7 609.3 1172.4 603C1172.9 601.2 1170 600.4 1169.5 602.3Z" fill="#E8E8E8"/>
<path d="M1147.4 697.3C1155.2 697.5 1162.7 697.6 1170.3 699.7C1177.8 701.8 1185.2 704 1192.7 706.2C1194.6 706.7 1195.4 703.8 1193.5 703.3C1185.5 701 1177.6 698.5 1169.5 696.4C1162.2 694.5 1154.9 694.6 1147.4 694.4C1145.5 694.2 1145.5 697.2 1147.4 697.3Z" fill="#E8E8E8"/>
<path d="M1256.8 761.3C1263.5 760.4 1270.1 760.4 1276.8 761.3C1276.5 760.6 1276.2 759.8 1275.9 759.1C1275.3 760 1269.3 760.1 1268.1 760.2C1265.4 760.6 1262.6 761 1259.9 761.6C1259.5 761.7 1256.8 762 1256.7 762.3C1256.9 761.8 1260.9 761.9 1261.5 761.9C1264.4 761.9 1267.3 762.2 1270.2 762.4C1270.2 761.4 1270.2 760.4 1270.2 759.4C1267.7 759.3 1265.5 759.6 1263 760.3C1261.4 760.7 1261.7 763.2 1263.4 763.2C1267.3 763.2 1270.8 762.4 1274.6 761.4C1276.5 760.9 1275.7 758 1273.8 758.5C1270.4 759.4 1267 760.2 1263.4 760.2C1263.5 761.2 1263.7 762.2 1263.8 763.1C1265.9 762.5 1268 762.3 1270.2 762.3C1272.1 762.3 1272.1 759.4 1270.2 759.3C1265.8 759.1 1259.4 757.5 1255.4 760C1253.8 761 1251.5 763.6 1253.6 765.2C1254.5 765.9 1255.5 765.5 1256.6 765.4C1259.6 764.8 1262.5 764.1 1265.5 763.6C1269 763 1276 763.9 1278.4 760.6C1278.9 759.9 1278.4 758.5 1277.5 758.4C1270.5 757.4 1263.7 757.4 1256.7 758.3C1254.9 758.5 1254.9 761.5 1256.8 761.3Z" fill="#E8E8E8"/>
<path d="M1160.9 763.2C1162.3 762.8 1163.7 762.5 1165.1 762.4C1165.8 762.4 1166.4 762.3 1167.1 762.4C1167.4 762.4 1168.8 762.3 1168.9 762.4C1168.8 761.9 1168.6 761.4 1168.5 760.9C1168.5 761 1168.4 761.1 1168.4 761.1C1169 760.8 1169.6 760.4 1170.2 760.1C1170.1 760.1 1170 760.1 1170 760.1C1170.3 760.4 1170.7 760.8 1171 761.1C1171 761 1171 760.9 1170.9 760.9C1170.4 759 1167.6 759.8 1168 761.7C1168 761.8 1168 761.9 1168.1 761.9C1168.2 762.4 1168.7 762.8 1169.1 762.9C1169.2 762.9 1169.3 762.9 1169.3 762.9C1170.1 763.1 1170.8 762.7 1171.1 761.9C1171.1 761.8 1171.2 761.7 1171.2 761.7C1171.4 761.2 1171.2 760.6 1170.8 760.2C1169.7 759.1 1167.3 759.3 1165.9 759.3C1163.9 759.3 1161.8 759.7 1159.9 760.2C1158.3 760.8 1159.1 763.7 1160.9 763.2Z" fill="#E8E8E8"/>
<path d="M1163.2 783.3C1199.7 789.6 1237.6 792.6 1273.6 781.8C1275.4 781.2 1274.7 778.4 1272.8 778.9C1237.4 789.5 1200 786.6 1164 780.4C1162.1 780.1 1161.3 783 1163.2 783.3Z" fill="#E8E8E8"/>
<path d="M1288.9 824.4C1353 824.4 1417.2 824.4 1481.3 824.4C1483.2 824.4 1483.2 821.4 1481.3 821.4C1417.2 821.4 1353 821.4 1288.9 821.4C1286.9 821.4 1286.9 824.4 1288.9 824.4Z" fill="#E8E8E8"/>
<path d="M1240.4 888.7C1300.8 888.7 1361.3 888.7 1421.7 888.7C1423.6 888.7 1423.6 885.7 1421.7 885.7C1361.3 885.7 1300.8 885.7 1240.4 885.7C1238.5 885.7 1238.5 888.7 1240.4 888.7Z" fill="#E8E8E8"/>
<path d="M1267.9 888.4C1260.7 894.4 1253.5 900.3 1246.4 906.3C1244.9 907.5 1247 909.6 1248.5 908.4C1255.7 902.4 1262.9 896.5 1270 890.5C1271.5 889.3 1269.3 887.1 1267.9 888.4Z" fill="#E8E8E8"/>
<path d="M1247.3 909.5C1249.2 909.5 1249.2 906.5 1247.3 906.5C1245.4 906.5 1245.4 909.5 1247.3 909.5Z" fill="#E8E8E8"/>
<path d="M1277.8 906.5C1216.9 906.5 1156 906.5 1095.1 906.5C1093.2 906.5 1093.2 909.5 1095.1 909.5C1156 909.5 1216.9 909.5 1277.8 909.5C1279.7 909.5 1279.7 906.5 1277.8 906.5Z" fill="#E8E8E8"/>
<path d="M1094.8 937.5C1105.6 928.5 1116.7 919.9 1128.1 911.6C1129.6 910.5 1128.2 907.9 1126.6 909C1115 917.4 1103.7 926.2 1092.7 935.3C1091.2 936.6 1093.3 938.7 1094.8 937.5Z" fill="#E8E8E8"/>
<path d="M184.4 882.9C255 882.9 325.6 882.9 396.2 882.9C416.2 882.9 436.2 882.9 456.2 882.9C458.1 882.9 458.1 879.9 456.2 879.9C385.6 879.9 315 879.9 244.4 879.9C224.4 879.9 204.4 879.9 184.4 879.9C182.5 879.9 182.5 882.9 184.4 882.9Z" fill="#E8E8E8"/>
<path d="M221.3 909C230.8 900.9 240.4 892.8 249.9 884.7C251.4 883.4 249.2 881.3 247.8 882.6C238.3 890.7 228.7 898.8 219.2 906.9C217.7 908.1 219.9 910.3 221.3 909Z" fill="#E8E8E8"/>
<path d="M186.9 911.9C252.5 911.9 318.1 911.9 383.7 911.9C385.6 911.9 385.6 908.9 383.7 908.9C318.1 908.9 252.5 908.9 186.9 908.9C185 908.9 185 911.9 186.9 911.9Z" fill="#E8E8E8"/>
<path d="M360.8 911.3C353.3 919.7 345.6 927.9 337.8 936.1C336.5 937.5 338.6 939.6 339.9 938.2C347.7 930 355.3 921.8 362.9 913.4C364.3 912 362.1 909.9 360.8 911.3Z" fill="#E8E8E8"/>
<path d="M309.6 940.9C367.3 940.9 424.9 940.9 482.6 940.9C484.5 940.9 484.5 937.9 482.6 937.9C424.9 937.9 367.3 937.9 309.6 937.9C307.7 937.9 307.7 940.9 309.6 940.9Z" fill="#E8E8E8"/>
<path d="M268.7 832.6C293.1 832.6 317.5 832.6 342 832.6C343.9 832.6 343.9 829.6 342 829.6C317.6 829.6 293.2 829.6 268.7 829.6C266.8 829.6 266.8 832.6 268.7 832.6Z" fill="#E8E8E8"/>
<path d="M360.5 842.4C368 842.4 375.6 842.4 383.1 842.4C385 842.4 385 839.4 383.1 839.4C375.6 839.4 368 839.4 360.5 839.4C358.5 839.4 358.5 842.4 360.5 842.4Z" fill="#E8E8E8"/>
<path d="M306.2 307.7C306.2 324 306.2 340.4 306.2 356.7C306.2 358.6 309.2 358.6 309.2 356.7C309.2 340.4 309.2 324 309.2 307.7C309.2 305.8 306.2 305.8 306.2 307.7Z" fill="#E8E8E8"/>
<path d="M255.9 359.1C296.1 359.1 336.3 359.1 376.5 359.1C378.4 359.1 378.4 356.1 376.5 356.1C336.3 356.1 296.1 356.1 255.9 356.1C254 356.1 254 359.1 255.9 359.1Z" fill="#E8E8E8"/>
<path d="M340.1 360.5C340.1 373.1 340.1 385.6 340.1 398.2C340.1 400.1 343.1 400.1 343.1 398.2C343.1 385.6 343.1 373.1 343.1 360.5C343.1 358.5 340.1 358.5 340.1 360.5Z" fill="#E8E8E8"/>
<path d="M306.8 403.4C338.8 403.4 370.9 403.4 402.9 403.4C404.8 403.4 404.8 400.4 402.9 400.4C370.9 400.4 338.8 400.4 306.8 400.4C304.8 400.4 304.8 403.4 306.8 403.4Z" fill="#E8E8E8"/>
<path d="M1113.8 272.6C1113.8 276.6 1113.8 280.5 1113.8 284.5C1113.8 286.4 1116.8 286.4 1116.8 284.5C1116.8 280.5 1116.8 276.6 1116.8 272.6C1116.8 270.7 1113.8 270.7 1113.8 272.6Z" fill="#E8E8E8"/>
<path d="M1116.2 275C1185 275 1253.8 275 1322.6 275C1324.5 275 1324.5 272 1322.6 272C1253.8 272 1185 272 1116.2 272C1114.3 272 1114.3 275 1116.2 275Z" fill="#E8E8E8"/>
<path d="M1118 286C1186.2 286 1254.4 286 1322.5 286C1324.4 286 1324.4 283 1322.5 283C1254.3 283 1186.1 283 1118 283C1116.1 283 1116.1 286 1118 286Z" fill="#E8E8E8"/>
<path d="M1322.1 272.6C1321.7 276.7 1321.9 280.8 1322.6 284.9C1322.9 286.8 1325.8 286 1325.5 284.1C1324.8 280.3 1324.7 276.4 1325.1 272.6C1325.3 270.7 1322.3 270.7 1322.1 272.6Z" fill="#E8E8E8"/>
<path d="M1130.3 272.7C1130.3 244.8 1130.3 216.9 1130.3 189C1130.3 187.1 1127.3 187.1 1127.3 189C1127.3 216.9 1127.3 244.8 1127.3 272.7C1127.3 274.7 1130.3 274.7 1130.3 272.7Z" fill="#E8E8E8"/>
<path d="M1130.3 189.5C1138.8 186.1 1147.8 186.6 1155.7 191.3C1157.4 192.3 1158.9 189.7 1157.2 188.7C1148.7 183.7 1138.6 182.9 1129.5 186.6C1127.7 187.3 1128.5 190.2 1130.3 189.5Z" fill="#E8E8E8"/>
<path d="M1155.2 190.6C1155.2 217.4 1155.2 244.3 1155.2 271.1C1155.2 273 1158.2 273 1158.2 271.1C1158.2 244.3 1158.2 217.4 1158.2 190.6C1158.2 188.7 1155.2 188.7 1155.2 190.6Z" fill="#E8E8E8"/>
<path d="M1158.6 213C1164.7 210.5 1171.1 210.9 1176.8 214.4C1178.5 215.4 1180 212.8 1178.3 211.8C1172 208 1164.6 207.3 1157.8 210.1C1156 210.8 1156.8 213.7 1158.6 213Z" fill="#E8E8E8"/>
<path d="M1176.2 214.3C1176.2 233.1 1176.2 251.8 1176.2 270.6C1176.2 272.5 1179.2 272.5 1179.2 270.6C1179.2 251.8 1179.2 233.1 1179.2 214.3C1179.2 212.4 1176.2 212.4 1176.2 214.3Z" fill="#E8E8E8"/>
<path d="M1130.7 212.5C1139.2 210.6 1147.6 211.2 1155.8 214.1C1157.6 214.7 1158.4 211.8 1156.6 211.2C1147.9 208.1 1138.9 207.7 1129.9 209.6C1128.1 210 1128.9 212.9 1130.7 212.5Z" fill="#E8E8E8"/>
<path d="M1156.5 247.2C1162.9 245.5 1169.3 245.3 1175.8 246.7C1177.7 247.1 1178.5 244.2 1176.6 243.8C1169.6 242.3 1162.7 242.4 1155.7 244.3C1153.9 244.8 1154.6 247.7 1156.5 247.2Z" fill="#E8E8E8"/>
<path d="M1214 271.7C1214 266.1 1214 260.5 1214 254.9C1214 253 1211 253 1211 254.9C1211 260.5 1211 266.1 1211 271.7C1211 273.6 1214 273.6 1214 271.7Z" fill="#E8E8E8"/>
<path d="M1212.5 255.8C1245 255.8 1277.4 255.8 1309.9 255.8C1311.8 255.8 1311.8 252.8 1309.9 252.8C1277.4 252.8 1245 252.8 1212.5 252.8C1210.5 252.8 1210.5 255.8 1212.5 255.8Z" fill="#E8E8E8"/>
<path d="M1310.9 257.4C1312.8 257.4 1312.8 254.4 1310.9 254.4C1308.9 254.4 1308.9 257.4 1310.9 257.4Z" fill="#E8E8E8"/>
<path d="M1309.4 255.9C1309.4 261 1309.4 266.1 1309.4 271.2C1309.4 273.1 1312.4 273.1 1312.4 271.2C1312.4 266.1 1312.4 261 1312.4 255.9C1312.4 254 1309.4 254 1309.4 255.9Z" fill="#E8E8E8"/>
<path d="M1232.9 253.8C1232.9 248.5 1232.9 243.3 1232.9 238C1232.9 236.1 1229.9 236.1 1229.9 238C1229.9 243.3 1229.9 248.5 1229.9 253.8C1229.9 255.7 1232.9 255.7 1232.9 253.8Z" fill="#E8E8E8"/>
<path d="M1231.4 239C1263.3 239 1295.2 239 1327.2 239C1329.1 239 1329.1 236 1327.2 236C1295.3 236 1263.4 236 1231.4 236C1229.5 236 1229.5 239 1231.4 239Z" fill="#E8E8E8"/>
<path d="M1326.2 237.5C1326.2 241.9 1326.2 246.3 1326.2 250.7C1326.2 252.6 1329.2 252.6 1329.2 250.7C1329.2 246.3 1329.2 241.9 1329.2 237.5C1329.2 235.5 1326.2 235.5 1326.2 237.5Z" fill="#E8E8E8"/>
<path d="M1308.8 256.3C1314.6 256.3 1320.4 256.3 1326.2 256.3C1328.1 256.3 1328.1 253.3 1326.2 253.3C1320.4 253.3 1314.6 253.3 1308.8 253.3C1306.8 253.3 1306.8 256.3 1308.8 256.3Z" fill="#E8E8E8"/>
<path d="M1326 250.8C1325.8 251.9 1325.8 252.9 1326.1 253.9C1326.3 254.7 1327.2 255.2 1327.9 254.9C1328.7 254.7 1329.2 253.8 1328.9 253.1C1328.8 252.6 1328.7 252 1328.8 251.6C1328.9 250.8 1328.6 249.9 1327.8 249.8C1327.1 249.6 1326.1 250 1326 250.8Z" fill="#E8E8E8"/>
<path d="M1254.2 238.2C1255.5 243.3 1255.8 248.5 1255.1 253.8C1254.9 255.7 1257.9 255.7 1258.1 253.8C1258.8 248.3 1258.4 242.8 1257.1 237.4C1256.6 235.6 1253.7 236.4 1254.2 238.2Z" fill="#E8E8E8"/>
<path d="M1276.8 255.6C1277.5 260.6 1277.1 265.5 1275.9 270.3C1275.4 272.2 1278.3 273 1278.8 271.1C1280.2 265.7 1280.5 260.3 1279.7 254.8C1279.5 252.9 1276.6 253.7 1276.8 255.6Z" fill="#E8E8E8"/>
<path d="M1257.2 377.3C1257.2 385.2 1257.2 393 1257.2 400.9C1257.2 402.8 1260.2 402.8 1260.2 400.9C1260.2 393 1260.2 385.2 1260.2 377.3C1260.2 375.3 1257.2 375.3 1257.2 377.3Z" fill="#E8E8E8"/>
<path d="M1234 401.3C1254 401.3 1274 401.3 1294 401.3C1295.9 401.3 1295.9 398.3 1294 398.3C1274 398.3 1254 398.3 1234 398.3C1232.1 398.3 1232.1 401.3 1234 401.3Z" fill="#E8E8E8"/>
<path d="M1199.9 64.9C1199.9 82.9 1199.9 101 1199.9 119C1199.9 120.9 1202.9 120.9 1202.9 119C1202.9 101 1202.9 82.9 1202.9 64.9C1202.9 63 1199.9 63 1199.9 64.9Z" fill="#E8E8E8"/>
<path d="M1203.7 64.8C1226.5 64.8 1249.2 64.8 1272 64.8C1273.9 64.8 1273.9 61.8 1272 61.8C1249.2 61.8 1226.5 61.8 1203.7 61.8C1201.8 61.8 1201.8 64.8 1203.7 64.8Z" fill="#E8E8E8"/>
<path d="M1272.1 64.4C1272.1 81.8 1272.1 99.2 1272.1 116.5C1272.1 118.4 1275.1 118.4 1275.1 116.5C1275.1 99.1 1275.1 81.7 1275.1 64.4C1275.1 62.5 1272.1 62.5 1272.1 64.4Z" fill="#E8E8E8"/>
<path d="M1201 120.7C1225.2 120.7 1249.4 120.7 1273.6 120.7C1275.5 120.7 1275.5 117.7 1273.6 117.7C1249.4 117.7 1225.2 117.7 1201 117.7C1199.1 117.7 1199.1 120.7 1201 120.7Z" fill="#E8E8E8"/>
<path d="M1206.6 71.1C1206.6 84.8 1206.6 98.4 1206.6 112.1C1206.6 114 1209.6 114 1209.6 112.1C1209.6 98.4 1209.6 84.8 1209.6 71.1C1209.6 69.2 1206.6 69.2 1206.6 71.1Z" fill="#E8E8E8"/>
<path d="M1208.8 72.3C1227.5 72.3 1246.3 72.3 1265 72.3C1266.9 72.3 1266.9 69.3 1265 69.3C1246.3 69.3 1227.5 69.3 1208.8 69.3C1206.9 69.3 1206.9 72.3 1208.8 72.3Z" fill="#E8E8E8"/>
<path d="M1263.9 71.1C1263.9 83.8 1263.9 96.4 1263.9 109.1C1263.9 111 1266.9 111 1266.9 109.1C1266.9 96.4 1266.9 83.8 1266.9 71.1C1266.9 69.2 1263.9 69.2 1263.9 71.1Z" fill="#E8E8E8"/>
<path d="M1208.8 113.6C1227.4 113.6 1246 113.6 1264.7 113.6C1266.6 113.6 1266.6 110.6 1264.7 110.6C1246.1 110.6 1227.5 110.6 1208.8 110.6C1206.9 110.6 1206.9 113.6 1208.8 113.6Z" fill="#E8E8E8"/>
<path d="M1244.2 95.6C1236.3 89.6 1248.1 77.1 1253.6 84.6C1258.7 91.4 1250.4 99.6 1243.3 95.8C1241.6 94.9 1240.1 97.5 1241.8 98.4C1246.4 100.9 1252.5 100.2 1255.8 95.9C1259.2 91.6 1258.8 84.8 1254.5 81.2C1250 77.5 1243.6 80 1240.5 84.2C1237.2 88.8 1238.2 94.8 1242.7 98.2C1244.3 99.3 1245.7 96.7 1244.2 95.6Z" fill="#E8E8E8"/>
<path d="M1234.7 110.4C1234.3 102.5 1244 99.5 1250.1 99.5C1257.6 99.5 1260 106.2 1263.1 111.9C1264 113.6 1266.6 112.1 1265.7 110.4C1263.6 106.6 1261.6 101.6 1258.1 98.8C1254.9 96.3 1250.9 96.4 1247.1 96.8C1240.1 97.6 1231.2 101.9 1231.7 110.4C1231.8 112.3 1234.8 112.3 1234.7 110.4Z" fill="#E8E8E8"/>
<path d="M1210.1 103.2C1212.3 99.1 1220.4 100.7 1223.4 102.3C1226.5 104 1228.3 106.8 1229.1 110.2C1229.5 112.1 1232.4 111.3 1232 109.4C1230.8 104.2 1227.2 100.1 1222 98.4C1217.6 97 1210.1 96.9 1207.6 101.6C1206.6 103.4 1209.2 104.9 1210.1 103.2Z" fill="#E8E8E8"/>
<path d="M1215.9 95.8C1212.6 95.7 1213.4 90.8 1214.8 89.1C1216.6 86.9 1220.2 86.6 1222.3 88.7C1224 90.3 1224.5 93.3 1223.1 95.2C1222.1 96.6 1220.6 96.9 1219 96.9C1218.4 96.9 1215.9 97 1215.5 96.5C1214.4 94.9 1211.8 96.4 1212.9 98C1214.1 99.8 1216.6 99.9 1218.6 99.9C1221 100 1223.3 99.4 1225 97.6C1228.2 94.1 1227.1 88.2 1223.3 85.6C1219.2 82.9 1213.5 84.4 1211.4 88.8C1209.6 92.7 1210.9 98.6 1215.9 98.7C1217.9 98.9 1217.9 95.9 1215.9 95.8Z" fill="#E8E8E8"/>
<path d="M603.9 330.7C608.6 334.5 614.4 332.9 618.8 329.2C625 324.1 628.1 315.4 629.3 307.7C632.4 288.1 624.5 269.5 621.4 250.5C615.8 215.2 631.2 177.4 659.8 156.2C673.7 145.8 696.6 134.7 691.2 113.4C690.7 111.5 687.8 112.3 688.3 114.2C693.4 134.5 669.8 144.8 656.9 154.6C645.3 163.5 635.9 175 629.2 187.9C622.6 200.4 618.6 214.3 617.5 228.4C616.2 245.5 620.7 261.4 624.4 277.9C626.6 287.9 628 298.4 626.1 308.6C625.2 313.3 623.6 317.9 621.1 322C618.3 326.4 611.6 333.2 606 328.7C604.6 327.4 602.4 329.5 603.9 330.7Z" fill="#E8E8E8"/>
<path d="M690.1 112.2C678.8 112.7 668.9 103.9 669.5 92.3C670.1 80.2 684.4 69 696.5 72.2C707.3 75.1 715.6 87 712.9 98.1C710.2 109.2 697.7 111.6 688.1 113.2C686.2 113.5 687 116.4 688.9 116.1C701.3 114.1 715.7 109.7 716.5 94.7C717.1 82.5 706.2 69.3 693.7 68.8C680.5 68.2 667.2 79 666.5 92.4C665.9 105.6 677.2 115.8 690.1 115.3C692 115.1 692 112.1 690.1 112.2Z" fill="#E8E8E8"/>
<path d="M675.3 104.4C680.1 92.3 705.7 90.3 708.7 104.7C709.1 106.6 712 105.8 711.6 103.9C707.9 86.3 678.2 88.9 672.4 103.6C671.7 105.4 674.6 106.1 675.3 104.4Z" fill="#E8E8E8"/>
<path d="M690.3 90.9C688.2 89.4 687.4 86.5 688.8 84.3C690.4 81.6 693.8 81.3 696.4 82.7C698.4 83.8 698.8 86.3 697.6 88.2C696.1 90.5 692.9 90.8 690.4 90.2C688.5 89.8 687.7 92.7 689.6 93.1C693.6 94 698.4 93.1 700.4 89.2C702.2 85.7 700.9 81.5 697.3 79.8C693.3 78 688.5 78.8 686.2 82.7C683.9 86.4 685.4 91 688.8 93.4C690.4 94.7 691.9 92.1 690.3 90.9Z" fill="#E8E8E8"/>
<path d="M732.7 60.1C743.2 32.3 773.4 18.1 801.5 16.2C820.1 14.9 838.7 17.8 856.9 21.3C874.1 24.7 892 30.1 909.6 29.5C924.1 29 939 23 945.8 9.50002C946.7 7.80002 944.1 6.30002 943.2 8.00002C935.3 23.6 917.1 27.6 901 26.3C882.2 24.8 863.7 19.2 845.2 16.1C815.2 11.1 783.2 10.4 756.5 27.3C744.4 35 734.8 45.8 729.7 59.3C729.1 61.1 732 61.9 732.7 60.1Z" fill="#E8E8E8"/>
<path d="M957.9 7.80002C984.3 7.80002 1010.8 7.80002 1037.2 7.80002C1039.1 7.80002 1039.1 4.80002 1037.2 4.80002C1010.8 4.80002 984.3 4.80002 957.9 4.80002C955.9 4.80002 955.9 7.80002 957.9 7.80002Z" fill="#E8E8E8"/>
<path d="M956.8 4.60002C952.1 2.14577e-05 957.2 -7.79999 960.9 -11.3C965.4 -15.7 971.6 -17.4 977.6 -15C978.1 -14.8 979.1 -15.1 979.3 -15.7C982.9 -24.1 991.4 -30.2 1000.7 -29.8C1010.4 -29.4 1018.6 -22.1 1021 -12.9C1021.2 -12 1022.4 -11.5 1023.2 -12C1027.6 -14.7 1032.1 -11.5 1033.9 -7.39998C1035.5 -3.59998 1035.1 0.700018 1034.7 4.80002C1034.5 6.70002 1037.5 6.70002 1037.7 4.80002C1038.3 -1.19998 1038.7 -8.29998 1033.9 -12.9C1030.5 -16.1 1025.8 -17.1 1021.8 -14.6C1022.5 -14.3 1023.3 -14 1024 -13.7C1021.3 -23.7 1012.7 -31.7 1002.2 -32.7C991.4 -33.8 981 -27.1 976.8 -17.2C977.4 -17.4 977.9 -17.7 978.5 -17.9C970.5 -21.1 962.1 -17.7 956.9 -11.1C953 -6.19999 949.6 1.70002 954.9 6.80002C956.1 8.10002 958.2 6.00002 956.8 4.60002Z" fill="#E8E8E8"/>
<path d="M1013.7 19.3C1026 17.9 1033.2 30.8 1035.1 41.2C1037.1 51.9 1035.2 62.6 1034.1 73.3C1032.4 89.4 1033.5 108.8 1048.8 118.2C1050.4 119.2 1052 116.6 1050.3 115.6C1029.4 102.8 1038.1 74.3 1038.9 54.7C1039.5 39.8 1033.6 14.1 1013.7 16.3C1011.8 16.5 1011.8 19.5 1013.7 19.3Z" fill="#E8E8E8"/>
<path d="M1065.4 101.3C1056.4 124 1047.5 146.7 1038.5 169.3C1037.8 171.1 1040.7 171.9 1041.4 170.1C1050.4 147.4 1059.3 124.7 1068.3 102.1C1069 100.3 1066.1 99.6 1065.4 101.3Z" fill="#E8E8E8"/>
<path d="M1066.8 103.2C1082.4 102.4 1097.9 102.8 1113.4 104.6C1112.9 104 1112.4 103.3 1112 102.7C1104.6 126.4 1098.6 150.4 1093.8 174.7C1093.4 176.6 1096.3 177.4 1096.7 175.5C1101.5 151.2 1107.6 127.2 1114.9 103.5C1115.2 102.5 1114.4 101.7 1113.5 101.6C1098 99.8 1082.5 99.4 1066.9 100.2C1064.9 100.3 1064.9 103.3 1066.8 103.2Z" fill="#E8E8E8"/>
<path d="M1039.2 172.2C1048.4 172.6 1057.5 173.1 1066.7 173.7C1075.6 174.2 1085.1 174 1093.5 177.4C1095.3 178.1 1096.1 175.2 1094.3 174.5C1086.3 171.2 1077.2 171.4 1068.7 170.9C1058.9 170.3 1049.1 169.8 1039.2 169.3C1037.3 169.1 1037.3 172.1 1039.2 172.2Z" fill="#E8E8E8"/>
<path d="M1068.2 113.2C1077.8 113.4 1087.4 114.1 1096.9 115.4C1098.8 115.7 1099.6 112.8 1097.7 112.5C1087.9 111.1 1078.1 110.3 1068.2 110.1C1066.2 110.1 1066.2 113.1 1068.2 113.2Z" fill="#E8E8E8"/>
<path d="M1065.3 120C1070.7 119.8 1076.1 119.9 1081.5 120.4C1083.4 120.6 1083.4 117.6 1081.5 117.4C1076.1 116.9 1070.7 116.7 1065.3 117C1063.4 117.1 1063.4 120.1 1065.3 120Z" fill="#E8E8E8"/>
<path d="M1058.7 133.5C1070.2 132.8 1081.1 131.8 1092.4 134.6C1094.3 135.1 1095.1 132.2 1093.2 131.7C1081.6 128.9 1070.5 129.8 1058.7 130.5C1056.7 130.6 1056.7 133.6 1058.7 133.5Z" fill="#E8E8E8"/>
<path d="M1059.2 142.3C1065.8 141.8 1072.4 141.8 1079 142.4C1080.9 142.6 1080.9 139.6 1079 139.4C1072.4 138.8 1065.8 138.8 1059.2 139.3C1057.3 139.5 1057.2 142.5 1059.2 142.3Z" fill="#E8E8E8"/>
<path d="M1054 153.9C1063 153.3 1071.8 153.6 1080.7 154.8C1082.6 155.1 1082.6 152.1 1080.7 151.8C1071.8 150.6 1062.9 150.3 1054 150.9C1052.1 151 1052.1 154 1054 153.9Z" fill="#E8E8E8"/>
<path d="M556.4 19.7C560.4 25.1 566.2 27.3 572.1 30C579.1 33.2 585.5 37.5 590.7 43.2C602.5 55.9 606.4 73 606.7 89.9C607.4 121.6 596.7 154.8 611.1 184.8C611.9 186.5 614.5 185 613.7 183.3C598.6 151.7 612 116.3 609.4 83.1C608.3 68.7 604.2 54.6 594.9 43.4C590.5 38.1 585.1 33.5 579.1 30.1C572.4 26.3 563.7 24.6 559 18.2C557.9 16.7 555.3 18.2 556.4 19.7Z" fill="#E8E8E8"/>
<path d="M522.2 -22.6C519.6 -25.9 519.8 -28.2 522.8 -29.5C524.1 -30.2 525.4 -30.7 526.9 -31C528.8 -31.4 530.9 -31.5 532.9 -31.4C538.9 -31.1 545 -29.5 544.7 -22.2C544.4 -13.6 542.8 -5.09997 540.7 3.20003C538.5 11.7 535.8 20 532.9 28.3C532.3 30.1 531.8 32.2 530.9 33.9C529.1 37 526.3 36.9 523.3 36.9C519.6 36.9 514.9 37.4 511.3 36.4C507.3 35.3 506.4 31.3 510.3 28.7C512.1 27.5 514.6 27.3 516.7 27.3C519.4 27.3 521.8 27.9 524.1 26.1C528.5 22.7 529.2 13.5 530.2 8.60004C531.7 1.50004 534.2 -7.19996 533.7 -14.4C533.3 -19.9 527.9 -20.1 524 -22.4C522.3 -23.4 520.8 -20.8 522.5 -19.8C525.6 -18 530.1 -17.8 530.7 -13.7C531.4 -8.89996 529.4 -2.39997 528.5 2.40003C527.6 7.00003 526.6 11.6 525.4 16.1C524.5 19.5 524.1 23.6 519.6 24.5C517.8 24.9 515.6 24.3 513.7 24.6C508.9 25.3 504.2 28.7 504.9 34.1C505.8 40.9 513.9 39.7 518.9 39.9C525.1 40.1 531.3 41 534.1 34.4C537.6 26.2 540.1 17.2 542.5 8.70003C545 -0.0999689 546.9 -9.19997 547.6 -18.3C548.2 -25.4 548.5 -31.1 540.6 -33C533.7 -34.7 524.2 -35.5 518.8 -29.9C515.2 -26.2 516.1 -18.9 522.3 -19.4C524.1 -19.8 524.1 -22.8 522.2 -22.6Z" fill="#E8E8E8"/>
<path d="M510.1 -11.9C510 -12 509.9 -12.1 509.8 -12.2C509.4 -12.6 508.8 -12.7 508.3 -12.6C505.4 -11.6 504.3 -6.89998 503.5 -4.29998C502.1 0.500023 501.8 5.40002 502.5 10.4C502.7 12.3 505.7 12.3 505.5 10.4C505.1 6.90002 505 3.50003 505.6 2.57492e-05C505.9 -1.79997 509 -8.79998 507.9 -9.79998C509.3 -8.39998 511.4 -10.5 510.1 -11.9Z" fill="#E8E8E8"/>
<path d="M500 -22.9C490.8 -11.2 484.9 2.90001 488.8 17.9C489.3 19.8 492.2 19 491.7 17.1C488.1 3.30002 493.7 -9.99999 502.1 -20.8C503.3 -22.3 501.2 -24.4 500 -22.9Z" fill="#E8E8E8"/>
<path d="M487.4 -36.4C472.1 -16.3 464.9 9.10003 467.5 34.3C467.7 36.2 470.7 36.2 470.5 34.3C468 9.60003 474.9 -15.1 490 -34.9C491.1 -36.4 488.5 -37.9 487.4 -36.4Z" fill="#E8E8E8"/>
<path d="M466.1 65.8C458.4 69.5 451.2 74.6 445.5 81C439.7 87.6 437.9 94.7 437 103.3C435 123 427.7 144.6 407.9 152.9C406.1 153.6 406.9 156.5 408.7 155.8C424.5 149.2 433.7 134.2 437.6 118C439.9 108.3 438.8 96.8 443.9 88.1C449.1 79.2 458.5 72.7 467.6 68.3C469.4 67.6 467.9 65 466.1 65.8Z" fill="#E8E8E8"/>
<path d="M365.6 206C359 206.2 351.5 203.4 349.1 196.6C346.3 188.6 352.3 180.8 358.7 176.7C371.1 168.7 387.8 165.6 402.2 165.4C409.5 165.3 417.8 165.4 424.2 169.3C432.4 174.3 433.8 183.7 427.4 190.8C417.7 201.6 401 202.7 387.6 203.7C385.7 203.8 385.7 206.8 387.6 206.7C401 205.7 416 204.5 426.8 195.5C436.7 187.3 437.4 173.7 425.8 166.6C413.8 159.3 395.5 161.7 382.5 164.5C370 167.2 352.9 172.1 347.3 185C341.5 198.2 352.6 209.2 365.8 208.8C367.6 208.9 367.6 205.9 365.6 206Z" fill="#E8E8E8"/>
<path d="M365.1 207.2C362.6 211.2 360.2 215.2 357.7 219.1C356.9 220.4 358.5 221.8 359.8 221.2C365.9 217.9 372.5 215.8 378.7 212.9C382.1 211.4 385.4 209.6 388.6 207.6C389.7 206.9 391 206.5 391.3 205.1C391.5 204.4 391.1 203.4 390.3 203.3C390.2 203.3 390.1 203.3 390 203.2C389.3 203.1 388.3 203.4 388.2 204.2C388.2 204.3 388.2 204.3 388.2 204.4C387.8 206.3 390.7 207.1 391.1 205.2C391.1 205.1 391.1 205.1 391.1 205C390.5 205.3 389.9 205.7 389.3 206C389.4 206 389.5 206 389.6 206.1C389.3 205.5 388.9 204.9 388.6 204.3C388.3 205.3 382.7 207.6 381.5 208.3C378.5 209.9 375.4 211.2 372.2 212.5C367.5 214.4 362.9 216.2 358.5 218.6C359.2 219.3 359.9 220 360.6 220.7C363.1 216.7 365.5 212.7 368 208.8C368.7 207.1 366.1 205.6 365.1 207.2Z" fill="#E8E8E8"/>
<path d="M368.4 189.9C368.3 189.7 368.3 189.3 368.6 189.3C369.4 189.3 368.5 190.3 368.4 190.4C367.9 190.7 366.2 191.1 366.3 190.1C366.4 188.9 368.7 187.6 369.1 189.4C369.2 189.9 368.8 190.5 368.3 190.6C368 190.7 367.8 190.7 367.6 190.5C367.5 190.4 367.3 190.3 367.5 190.3C369.4 190.4 369.4 187.4 367.5 187.3C365.5 187.1 364 189.2 364.5 191.1C365 193 367.2 194 369 193.5C370.8 193 372.2 191.4 372.2 189.5C372.2 187.6 370.7 186 369 185.6C365.3 184.7 361.4 190.1 364.6 192.8C367.2 195 372.4 193 372.1 189.3C371.9 187.3 369.7 185.7 367.7 186.4C365.7 187.1 364.9 189.6 365.9 191.4C366.7 193.1 369.3 191.6 368.4 189.9Z" fill="#E8E8E8"/>
<path d="M390.5 187.2C390.4 186.6 390.1 185.8 390.7 185.3C391 185 391.5 185 391.9 185C392.9 185.2 392.7 186.3 392 186.8C391.6 187.1 391.2 187.1 390.9 186.7C390.6 186.3 390.7 186.2 391 186C391.2 185.9 390.6 186 391.1 185.9C392.3 185.7 390.3 187.1 390.6 186.1C390 188 392.9 188.7 393.5 186.9C394 185.1 392.3 183.3 390.5 183.6C388.4 184 387.9 186.5 389.2 188C390.4 189.4 392.6 189.1 393.5 187.5C394.4 185.9 393.8 183.8 392 183.2C390.2 182.6 388.2 183.7 387.8 185.5C387.3 187.5 388.7 189.5 390.7 190C394.3 190.8 397.3 185.9 394.7 183.2C393.4 181.9 391.3 181.8 389.7 182.5C387.5 183.6 387.4 185.9 387.8 188C387.9 189.9 390.8 189.1 390.5 187.2Z" fill="#E8E8E8"/>
<path d="M412.7 180.5C413.1 180.5 413.5 180.6 414 180.6V180.5C414.1 180.4 414.1 180.2 414.2 180.1C414.3 179.9 414.6 179.7 414.8 179.6C415.3 179.4 415.8 179.4 416.1 179.9C416.5 180.7 415.8 182.2 414.8 181.6C414.2 181.2 414.1 180.2 415 180.4C415.2 180.4 415.3 180.5 415.4 180.6C415.4 180.4 415.4 180.7 415.3 180.7C415 180.9 414.9 181.1 414.6 180.9C413.9 180.4 412.9 180.8 412.5 181.4C412.1 182.2 412.4 183 413 183.5C415.9 185.6 419.8 181.4 417.5 178.6C415.4 176.1 410.9 177.7 411.1 181C411.2 182.7 412.5 184.2 414.1 184.6C415.7 185 417.4 184.2 418.3 182.8C420.3 179.7 417.5 175.4 413.8 176.6C412.1 177.2 410.6 178.9 410.8 180.8C411 182.9 414 184 415.1 181.9C416.1 180.3 413.6 178.8 412.7 180.5Z" fill="#E8E8E8"/>
<path d="M473.1 93.3C485.4 86.5 496.1 77.5 505 66.6C506.2 65.1 504.1 63 502.9 64.5C494.2 75.2 483.7 84 471.6 90.7C469.9 91.6 471.4 94.2 473.1 93.3Z" fill="#E8E8E8"/>
<path d="M622.7 95.9C620.5 108.5 619.6 121.2 620.2 134C620.3 135.9 623.3 135.9 623.2 134C622.6 121.5 623.4 109 625.6 96.7C625.9 94.8 623 94 622.7 95.9Z" fill="#E8E8E8"/>
<path d="M607.4 388.2C607.4 372.9 614.6 358.4 626.9 349.2C628.4 348.1 626.9 345.5 625.4 346.6C612.2 356.4 604.5 371.7 604.5 388.2C604.4 390.1 607.4 390.1 607.4 388.2Z" fill="#E8E8E8"/>
<path d="M774.9 792C776.5 806.4 779 822.2 783 839.3C788.4 862.4 795.3 882.6 802.2 899.6C800.3 901.3 794.6 905.8 786.2 906.4C780.9 906.8 776.7 905.5 774.3 904.6C770.7 892.1 767.2 879.1 764 865.6C757.4 837.8 752.6 811.3 749.1 786.6C757.8 788.4 766.4 790.2 774.9 792Z" fill="#191919"/>
<path d="M999.4 782.6C998.1 796.9 995.9 812.8 992.2 829.9C987 854.1 980.1 875.1 973.1 892.8C974.1 893.7 979.8 899.1 988.6 898.7C996.2 898.4 1001.1 893.9 1002.3 892.8C1004.6 880.7 1006.8 868.5 1009 856.3C1013.8 829.6 1018.1 803.3 1022.2 777.3C1014.6 779 1007 780.8 999.4 782.6Z" fill="#191919"/>
<path d="M820.6 742.7C822.9 758 825.6 773.8 828.7 790C833.2 813.5 838.3 835.9 843.7 857.1C841.4 858.5 836.8 860.8 830.5 861.2C825.2 861.5 821 860.3 818.6 859.4C815.6 845.2 812.7 830.8 809.8 816.4C804.5 789.7 799.6 763.4 794.9 737.4C803.5 739.1 812 740.9 820.6 742.7Z" fill="#191919"/>
<path d="M961.7 739.7C959 754.8 956.6 770.6 954.5 787C951.6 809.6 949.6 831.2 948.4 851.8C950.1 852.9 954.1 855.2 959.8 855.5C965.9 855.7 970.4 853.3 972.1 852.3C971.1 840.5 970.7 827.4 971.3 813.4C972.5 782.3 978.2 755.5 984.5 734.4C976.9 736.1 969.3 737.9 961.7 739.7Z" fill="#191919"/>
<path d="M1139.4 405.1C1156.9 436.3 1143.4 470.8 1110.6 556.5C1094.8 597.7 1065.9 673.4 1025.1 781.3C985 795.9 918.6 813.9 836.5 808.2C788.8 804.9 748.8 794.6 718.5 784C714 775.9 698.4 745.6 710.1 716.2C716.6 699.9 729.7 688.2 757.5 674.4C784.9 660.8 833.2 641.7 903.4 638.2C875.9 501.3 923 389.1 996.3 363.2C1044.4 346.3 1115.3 362.2 1139.4 405.1Z" fill="white" stroke="#191919" stroke-width="2" stroke-miterlimit="10"/>
<path d="M1133 416.4C1104 453.1 1097.4 502.4 1086.3 546.5C1074.4 593.7 1060.7 640.8 1040.2 685.1C1028.9 709.4 1015.6 732.8 999.7 754.4C998.6 756 1001.2 757.5 1002.3 755.9C1030.2 717.9 1049.9 674.8 1065.1 630.4C1080.5 585.2 1090.7 538.6 1102.7 492.5C1109.5 466.3 1118.2 440.1 1135.2 418.6C1136.3 417 1134.2 414.9 1133 416.4Z" fill="#191919"/>
<path d="M719.1 762.3C785.8 786.8 858.5 794 928.7 783.1C948.8 780 968.7 775.4 988.2 769.4C990 768.8 989.3 765.9 987.4 766.5C919.4 787.5 846.4 790.7 776.8 775.9C757.5 771.8 738.4 766.2 719.9 759.4C718.1 758.7 717.3 761.6 719.1 762.3Z" fill="#191919"/>
<path d="M953.9 683.7C970.7 689.2 985 700.3 994.6 715.3C995.6 716.9 998.2 715.4 997.2 713.8C987.2 698.2 972.3 686.6 954.7 680.8C952.8 680.2 952 683.1 953.9 683.7Z" fill="#191919"/>
<path d="M653.1 813.2C661.1 825.2 669.1 837.3 677 849.3C625.8 895.3 619.2 908.4 623 911.6C630.6 917.9 685.1 889.9 690.7 887C711 876.6 726.3 866.5 736.5 859.3C732.9 849.5 728.1 838.5 721.5 826.9C712.8 811.6 703.2 798.7 694.1 788.2C680.4 796.4 666.7 804.8 653.1 813.2Z" fill="#191919"/>
<path d="M952.3 577.5C955.9 585.3 959.7 596.4 960.3 609.8C961.2 630 954.6 646.1 949.6 655.4C946.9 658.9 942.1 664.7 935 671C935 671 918.9 685.2 893.3 696.1C867.2 707.3 791.3 720.8 688.2 723.4C691.2 736.2 696.6 751.9 706.2 768.8C711.5 778.1 717.3 786.3 723 793.4C719.2 798.4 708.4 811.1 686.9 819.1C666.2 826.8 647.2 825.9 639.7 825.3C628.9 815.4 617.8 803.6 607.5 789.5C577.2 747.8 570.1 707.5 568.8 681.6C576.3 676.2 587.3 668.8 601.7 660.9C631.7 644.4 659.2 635.4 681.8 628.7C720.7 617.3 757.9 609.4 843.5 594.9C870.3 590.4 907.4 584.2 952.3 577.5Z" fill="white" stroke="#191919" stroke-width="2" stroke-miterlimit="10"/>
<path opacity="0.19" d="M857.3 594.7C854.4 613.8 846.2 638.6 820.8 654C796.1 669 775.4 662.9 725.9 674.9C690.3 683.5 643.2 694.9 630.1 720.2C616.4 746.8 642.3 784.3 687.6 815.1C691.4 814.6 696.2 813.6 701.3 811.6C714.4 806.4 720.8 797.9 723.2 794.2C717.4 787.2 711.4 779.1 705.9 769.8C695.5 752.4 689.9 736.2 686.7 723.1C739.7 720.9 784.2 716.3 818 711.9C858.7 706.6 886.9 701.3 913.8 686.1C936.3 673.4 945.3 660.9 948.5 656.1C958.2 641.4 959 628 959.4 620.5C960.4 602.2 954.4 587.3 949.4 577.9C918.7 583.5 888 589.1 857.3 594.7Z" fill="#6C6D6D"/>
<path opacity="0.19" d="M950.4 580C948.4 598.6 941.3 628 913 651.2C895.6 665.5 876.9 671.9 803.5 691.7C771.1 700.4 731.9 710.7 687.3 721.9C744 721.3 790.1 716.6 823.2 712.1C857.5 707.4 874.3 703.3 891.7 695.8C908.2 688.7 941.5 674.3 955.1 644C968.2 614.6 955 588.2 950.4 580Z" fill="#6C6D6D"/>
<path opacity="0.22" d="M687.6 723.4C687.2 736.6 687.8 751.7 690.3 768.3C692.7 784.7 696.6 799.4 700.8 812.2C704.2 810.2 708.1 807.5 711.9 804.2C716.5 800.2 719.9 796.4 722.4 793.1C716.6 785.5 710.7 776.7 705.2 766.8C696.3 750.8 691 736 687.6 723.4Z" fill="#6C6D6D"/>
<path d="M683 870.6C690.7 885.7 698.3 900.8 706 916C656.8 973.8 650.4 990.2 654.1 994.2C661.4 1002.2 713.8 966.9 719.2 963.3C738.7 950.2 753.5 937.5 763.3 928.5C759.8 916.2 755.2 902.4 748.8 887.7C740.5 868.5 731.2 852.3 722.5 839C709.3 849.6 696.1 860.1 683 870.6Z" fill="#191919"/>
<path d="M970.6 574.4C974.1 584.3 977.7 598.1 978.3 615C979.2 640.4 972.8 660.6 968 672.3C965.4 676.7 960.8 684 954 692C954 692 938.6 709.9 914 723.6C888.9 737.6 815.9 754.7 716.9 757.9C719.8 774 724.9 793.7 734.2 814.9C739.3 826.6 744.9 836.9 750.4 845.8C746.8 852.1 736.4 868 715.7 878.1C695.8 887.8 677.6 886.7 670.3 885.8C659.9 873.4 649.2 858.5 639.4 840.8C610.2 788.4 603.4 737.7 602.2 705.2C609.4 698.5 620 689.1 633.8 679.2C662.7 658.5 689 647.1 710.8 638.7C748.1 624.4 784 614.5 866.3 596.2C891.7 590.5 927.5 582.8 970.6 574.4Z" fill="white" stroke="#191919" stroke-width="2" stroke-miterlimit="10"/>
<path opacity="0.19" d="M879.3 596C876.5 620 868.6 651.1 844.2 670.5C820.5 689.4 800.5 681.7 753 696.8C718.8 707.6 673.5 722 660.9 753.8C647.7 787.2 672.6 834.4 716.1 873C719.8 872.4 724.4 871.1 729.3 868.6C741.9 862.1 748 851.4 750.3 846.7C744.7 837.9 738.9 827.7 733.6 816C723.6 794.1 718.2 773.8 715.2 757.3C766.2 754.5 808.9 748.8 841.5 743.3C880.7 736.7 907.7 730 933.6 710.9C955.2 694.9 963.9 679.2 966.9 673.2C976.2 654.7 977 637.9 977.4 628.5C978.3 605.5 972.6 586.8 967.8 575C938.3 581.9 908.8 588.9 879.3 596Z" fill="#6C6D6D"/>
<path opacity="0.19" d="M968.7 577.5C966.8 600.8 960 637.8 932.8 667C916 685 898.1 693 827.6 717.9C796.4 728.9 758.8 741.8 715.9 755.9C770.4 755.1 814.8 749.3 846.6 743.6C879.6 737.7 895.8 732.6 912.4 723.2C928.3 714.2 960.2 696.2 973.4 658C985.9 621 973.2 587.9 968.7 577.5Z" fill="#6C6D6D"/>
<path opacity="0.22" d="M716.2 757.8C715.8 774.4 716.4 793.4 718.8 814.2C721.2 834.9 724.8 853.3 728.9 869.3C732.2 866.7 735.9 863.4 739.6 859.2C744 854.2 747.3 849.4 749.7 845.3C744.1 835.7 738.4 824.7 733.2 812.2C724.6 792.2 719.4 773.5 716.2 757.8Z" fill="#6C6D6D"/>
<path d="M677.3 419C675.4 418.1 671.6 416.4 671.7 414.5C671.9 411.4 682.2 409.3 689.9 409.4C695.1 409.4 704.7 410.5 715.9 418.3C705.4 421.6 689.9 424.6 677.3 419Z" fill="white" stroke="#191919" stroke-width="2" stroke-miterlimit="10"/>
<path d="M917.8 289.3C898.8 286.8 881.7 315.3 880.1 317.9C874.3 327.8 873.6 334.4 869.6 352.5C859.9 396.6 854.7 419 840.3 432.5C827.3 444.6 812.1 447.5 808.1 448.1C791 450.8 775.5 444.4 745.3 431.5C719.8 420.6 716.7 416.6 702.8 415C695.7 414.2 675 411.9 661.3 425.2C652.5 433.7 648.6 447.3 651.8 450.1C655.9 453.7 672.7 441 672.9 441.3C673 441.5 667.9 443.9 663.7 449.1C661.6 451.6 658 457 659.3 458.4C661.6 461.2 675.7 444.2 691.2 447.2C701.8 449.2 703.8 458.8 716.1 460.6C723.3 461.7 729.6 459.5 733.6 457.6C740.6 465.2 752 476 768.5 484.8C778.3 490 812.9 507.9 855.2 497.5C900.1 486.5 922.7 451.4 929.8 440.4C933.8 434.1 963.2 387.1 949 334.4C946.5 325.9 937.4 291.9 917.8 289.3Z" fill="white" stroke="#191919" stroke-width="2" stroke-miterlimit="10"/>
<path opacity="0.25" d="M915.8 289.6C909.3 293 921.9 316.6 920.3 350.4C918.8 382.9 904.9 406.9 898.7 417.9C890.3 432.6 879.2 451.8 857.1 464.3C827.4 481.1 790.6 478.6 764.4 467.2C756.6 463.8 748.7 452.8 731.5 446.1C724 443.2 718.1 442 711.2 440.6C694.3 437.3 679.3 434.3 665.4 441.3C658.8 444.7 653.3 449.9 653.7 450.6C654.1 451.3 661.8 447.4 668.6 443.7C660.4 454.6 659.1 457.7 659.7 458.3C660.4 458.9 662.9 456.6 669.3 453C676.2 449.2 681.2 446.5 687.3 447C690.4 447.3 692.8 448.3 694.2 448.9C699.7 451.3 701 454.1 706.5 456.9C709.9 458.6 712.7 459.3 714.2 459.6C717.4 460.3 724 461.2 732.7 458.1C740.3 466.1 775.2 501.5 826.3 500.8C852.6 500.4 871.9 490.6 879.5 486.7C921.2 465 937.8 426.5 942 415.9C955 383.1 959.6 334.5 935.8 304C930.1 296.6 920.3 287.3 915.8 289.6Z" fill="#6C6D6D"/>
<path d="M653.6 450.1C657.5 444.3 662.6 439.7 668.7 436.4C670 435.7 668.8 433.8 667.6 434.5C661.2 438 655.8 442.9 651.7 449C650.8 450.2 652.8 451.3 653.6 450.1Z" fill="#191919"/>
<path d="M654.8 437.2C658.7 431.1 665 427.9 671.3 424.8C672.6 424.2 671.5 422.2 670.2 422.9C663.5 426.1 656.9 429.6 652.8 436.1C652.1 437.3 654 438.4 654.8 437.2Z" fill="#191919"/>
<path opacity="0.29" d="M944.5 325.6C943 335.7 940.3 350.3 935.5 367.5C926.1 401.5 917.6 432.1 895.4 456.4C867.9 486.4 830.6 494.6 809.2 497.1C825.1 500.8 837.6 500.1 845.5 499C905.5 490.6 937.9 426.1 946.7 397.9C948.2 392.9 951.4 382.6 951.8 368.5C952.5 349.7 947.9 334.6 944.5 325.6Z" fill="#6C6D6D"/>
<path opacity="0.26" d="M693.2 446C698.9 448.8 706.7 451.9 716.3 453.7C723.9 455.1 730.7 455.4 736.1 455.2C722.4 462.5 715.3 461.6 711.3 459.2C708.8 457.7 706 454.7 698.3 449.4C696.2 447.9 694.4 446.7 693.2 446Z" fill="#6C6D6D"/>
<path d="M491 610.4C491 658.4 491 706.5 491 754.5C491 760.3 500 760.3 500 754.5C500 706.5 500 658.4 500 610.4C500 604.7 491 604.6 491 610.4Z" fill="#161616"/>
<path d="M654.6 608.5C654.6 616.2 654.6 623.9 654.6 631.6C654.6 637.4 663.6 637.4 663.6 631.6C663.6 623.9 663.6 616.2 663.6 608.5C663.6 602.7 654.6 602.7 654.6 608.5Z" fill="#161616"/>
<path d="M366.8 604.5C415.3 558.8 463.8 513 512.4 467.3C590.9 468.7 669.3 470.1 747.8 471.5C735 515.9 722.2 560.2 709.4 604.6C595.2 604.5 481 604.5 366.8 604.5Z" fill="white" stroke="#191919" stroke-width="2" stroke-miterlimit="10"/>
<path d="M369.7 609.7C457.4 609.7 545 609.7 632.7 609.7C657.3 609.7 681.8 609.7 706.4 609.7C712.2 609.7 712.2 600.7 706.4 600.7C618.7 600.7 531.1 600.7 443.4 600.7C418.8 600.7 394.3 600.7 369.7 600.7C363.9 600.7 363.9 609.7 369.7 609.7Z" fill="#161616"/>
<path d="M395.4 608.2C395.4 707.7 395.4 807.2 395.4 906.6C395.4 934.5 395.4 962.3 395.4 990.2C395.4 996 404.4 996 404.4 990.2C404.4 890.7 404.4 791.2 404.4 691.8C404.4 663.9 404.4 636.1 404.4 608.2C404.4 602.4 395.4 602.4 395.4 608.2Z" fill="#161616"/>
<path d="M669.7 608.2C669.7 707.7 669.7 807.2 669.7 906.6C669.7 934.5 669.7 962.3 669.7 990.2C669.7 996 678.7 996 678.7 990.2C678.7 890.7 678.7 791.2 678.7 691.8C678.7 663.9 678.7 636.1 678.7 608.2C678.7 602.4 669.7 602.4 669.7 608.2Z" fill="#161616"/>
<path d="M399.9 793.9C470.5 793.9 541.1 793.9 611.7 793.9C631.7 793.9 651.7 793.9 671.7 793.9C677.5 793.9 677.5 784.9 671.7 784.9C601.1 784.9 530.5 784.9 459.9 784.9C439.9 784.9 419.9 784.9 399.9 784.9C394.1 784.9 394.1 793.9 399.9 793.9Z" fill="#161616"/>
<path d="M746.6 471.5C735.2 516 722.1 560.1 707.1 603.5C705.8 607.2 711.6 608.7 712.9 605.1C727.9 561.6 741 517.6 752.4 473.1C753.3 469.4 747.6 467.8 746.6 471.5Z" fill="#161616"/>
<path d="M267.8 1000C320.9 1000 373.9 1000 427 1000C432.8 1000 432.8 991 427 991C373.9 991 320.9 991 267.8 991C262 991 262 1000 267.8 1000Z" fill="#161616"/>
<path d="M449.3 998C461.5 998 473.8 998 486 998C491.8 998 491.8 989 486 989C473.8 989 461.5 989 449.3 989C443.5 989 443.5 998 449.3 998Z" fill="#161616"/>
<path d="M608.5 999.3C656.3 999.3 704.1 999.3 752 999.3C757.8 999.3 757.8 990.3 752 990.3C704.2 990.3 656.4 990.3 608.5 990.3C602.7 990.3 602.7 999.3 608.5 999.3Z" fill="#161616"/>
<path d="M784.7 996.1C793.2 996.1 801.7 996.1 810.3 996.1C816.1 996.1 816.1 987.1 810.3 987.1C801.8 987.1 793.3 987.1 784.7 987.1C778.9 987.1 778.9 996.1 784.7 996.1Z" fill="#161616"/>
<path d="M219.6 968.3C240.3 968.3 261 968.3 281.6 968.3C287.4 968.3 287.4 959.3 281.6 959.3C260.9 959.3 240.2 959.3 219.6 959.3C213.8 959.3 213.8 968.3 219.6 968.3Z" fill="#161616"/>
<path d="M657 585.6C595.3 584 533.5 582.5 471.8 580.9C508.4 545.9 544.9 510.8 581.5 475.8C623.7 478 666 480.2 708.2 482.4C691.1 516.9 674.1 551.2 657 585.6Z" fill="white" stroke="#191919" stroke-width="2" stroke-miterlimit="10"/>
<path d="M579.4 475.1C543.5 509.8 507.6 544.6 471.7 579.3C470.1 523.7 468.4 468 466.8 412.4C503.2 389.4 539.6 366.4 576 343.4C577 387.3 578.2 431.2 579.4 475.1Z" fill="white" stroke="#191919" stroke-width="2" stroke-miterlimit="10"/>
<path d="M470.1 417.7C473 467.2 474.9 516.8 475.9 566.4C475.9 567.4 477.4 567.4 477.4 566.4C476.4 516.8 474.5 467.2 471.6 417.7C471.5 416.8 470 416.8 470.1 417.7Z" fill="#191919"/>
<path d="M470.9 417.9C504.4 396.1 537.9 374.3 571.4 352.5C572.2 352 571.5 350.7 570.6 351.2C537.1 373 503.6 394.8 470.1 416.6C469.3 417.2 470 418.5 470.9 417.9Z" fill="#191919"/>
<path d="M571 352.4C570.9 392.3 572.1 432.3 574.7 472.1C574.8 473.1 576.3 473.1 576.2 472.1C573.7 432.2 572.4 392.3 572.5 352.4C572.5 351.5 571 351.5 571 352.4Z" fill="#191919"/>
<path d="M476.9 568.5C509.7 536.8 542.6 505.1 575.4 473.5C576.1 472.8 575 471.8 574.3 472.4C541.5 504.1 508.6 535.8 475.8 567.4C475.2 568.1 476.2 569.2 476.9 568.5Z" fill="#191919"/>
<path d="M628.8 551.5C634.9 541.8 641 532 646.9 522.1C647.4 521.3 646.1 520.5 645.6 521.3C639.7 531.2 633.6 541 627.5 550.7C626.9 551.5 628.2 552.3 628.8 551.5Z" fill="#191919"/>
<path d="M646.5 521.8C654.4 522.1 662.3 522.1 670.2 521.7C671.2 521.7 671.2 520.2 670.2 520.2C662.3 520.5 654.4 520.5 646.5 520.3C645.5 520.3 645.5 521.8 646.5 521.8Z" fill="#191919"/>
<path d="M669.2 521.3C664.7 531.1 660.1 540.9 655.5 550.7C655.1 551.6 656.4 552.3 656.8 551.5C661.4 541.7 666 531.9 670.5 522.1C670.9 521.1 669.6 520.4 669.2 521.3Z" fill="#191919"/>
<path d="M628.3 552.3C637.1 553.6 646.4 553 655.3 552.6C656.3 552.6 656.3 551.1 655.3 551.1C646.6 551.5 637.4 552.1 628.7 550.9C627.7 550.7 627.3 552.2 628.3 552.3Z" fill="#191919"/>
<path d="M661.1 521.4C657.1 531.4 652.5 541.1 647.3 550.5C646.8 551.3 648.1 552.1 648.6 551.3C653.8 541.7 658.5 531.9 662.6 521.8C662.9 520.9 661.5 520.5 661.1 521.4Z" fill="#191919"/>
<path d="M516.2 566.7C538.2 539.5 561 512.9 584.5 486.9C585.1 486.2 584.1 485.1 583.4 485.8C559.9 511.7 537.1 538.3 515.1 565.6C514.5 566.4 515.6 567.4 516.2 566.7Z" fill="#191919"/>
<path d="M542.8 568.4C562.5 540.9 583.3 514.3 605.1 488.5C605.7 487.8 604.7 486.7 604 487.4C582.1 513.3 561.3 540 541.5 567.6C540.9 568.4 542.2 569.2 542.8 568.4Z" fill="#191919"/>
<path d="M571.4 572.5C588.5 543.9 607.2 516.3 627.4 489.8C628 489 626.7 488.3 626.1 489C605.9 515.5 587.2 543.1 570.1 571.7C569.6 572.5 570.9 573.3 571.4 572.5Z" fill="#191919"/>
<path d="M595.4 575C612.2 543.7 632.1 514.2 654.9 487C655.5 486.3 654.5 485.2 653.8 485.9C630.9 513.2 610.9 542.8 594 574.2C593.6 575.1 594.9 575.9 595.4 575Z" fill="#191919"/>
<path d="M529 550.5C554.6 547.8 580.2 551 605.7 554.4C606.7 554.5 606.6 553 605.7 552.9C580.3 549.5 554.7 546.2 529 549C528.1 549.1 528.1 550.6 529 550.5Z" fill="#191919"/>
<path d="M541.9 535.9C566.1 535 590.3 536.8 614.1 541.4C615 541.6 615.4 540.1 614.5 540C590.6 535.4 566.2 533.6 541.9 534.5C541 534.4 541 535.9 541.9 535.9Z" fill="#191919"/>
<path d="M553.5 521.8C576.8 520.3 600.1 522.4 622.8 528C623.7 528.2 624.1 526.8 623.2 526.6C600.4 520.9 577 518.8 553.5 520.3C552.5 520.4 552.5 521.9 553.5 521.8Z" fill="#191919"/>
<path d="M565.5 507.7C587.9 507.8 610.1 510.1 632 514.6C632.9 514.8 633.3 513.3 632.4 513.2C610.4 508.7 588 506.4 565.5 506.3C564.6 506.2 564.6 507.7 565.5 507.7Z" fill="#191919"/>
<path d="M577.4 494.6C598.7 495 619.9 497.5 640.6 502.2C641.5 502.4 641.9 501 641 500.8C620.1 496.1 598.8 493.5 577.4 493.2C576.4 493.1 576.4 494.6 577.4 494.6Z" fill="#191919"/>
<path d="M646 509.8C636.2 524.2 626.5 538.6 616.7 553C616.2 553.8 617.5 554.6 618 553.8C627.8 539.4 637.5 525 647.3 510.6C647.9 509.7 646.6 509 646 509.8Z" fill="#191919"/>
<path d="M480.4 488C492.9 482.7 506.4 485.7 519.6 485.5C530.7 485.4 541.3 482.3 550.8 476.7C551.6 476.2 550.9 474.9 550 475.4C538.3 482.3 525.9 484.5 512.5 483.9C501.3 483.4 490.2 482.3 479.6 486.8C478.8 487.1 479.5 488.4 480.4 488Z" fill="#191919"/>
<path d="M514.1 481.8C535.5 469.7 545.4 444.2 567.7 433.5C568.6 433.1 567.8 431.8 566.9 432.2C544.5 443 534.7 468.4 513.3 480.5C512.5 481 513.2 482.3 514.1 481.8Z" fill="#191919"/>
<path d="M541.3 410.5C537.6 407.6 538.2 402.9 540.3 399.2C541.3 397.4 542.8 395.5 544.5 394.4C547.6 392.4 550.5 394 552.9 396.1C553.6 396.7 554.7 395.7 554 395C549 390.8 544.3 391.2 540.2 396.6C536.9 401 535.2 407.6 540.2 411.6C541 412.2 542.1 411.1 541.3 410.5Z" fill="#191919"/>
<path d="M849.3 337.4C821.9 367.8 814.5 401.2 810.5 420.1C803.2 455.1 810.9 469.1 811.4 535.6C811.6 563.9 810.4 586.8 809.5 601.2C815.7 606 854.1 634.6 905.4 625.2C943.4 618.3 966.3 594.5 973.5 586.4C975.2 576.9 977.6 562.9 980.4 545.9C995.2 454.2 1002.5 407.7 993.3 374.4C987.8 354.2 974.2 322.2 935.6 289.1C919.4 292.5 880.5 302.9 849.3 337.4Z" fill="#EC615B"/>
<path opacity="0.19" d="M877.2 319C886.7 347.4 891.8 371.7 894.8 389.5C902.7 436.6 914.6 507.2 881.1 575.6C870.4 597.4 857.9 613.4 849.1 623.3C860.7 626 883.7 629.7 911.1 622.6C943.7 614.2 964.1 595.3 972.5 586.7C979 549.5 984.2 517.6 988.2 492.7C995.1 448.9 996.7 435.6 996 416.9C995.2 392.9 994.1 367.7 979.7 340.5C965.9 314.5 946.5 298.9 934.6 290.9C924.9 292.6 911.2 296.2 896.7 304.6C888.7 309.4 882.2 314.5 877.2 319Z" fill="#6C6D6D"/>
<path opacity="0.18" d="M990.8 366.7C989 366.8 992.8 394.5 986.9 432.7C976 503.4 941 552.4 927.5 569.8C916.2 584.3 898.5 604.3 872.6 624C881.9 625.4 894.3 626 908.5 623.3C942.2 617 963.6 596.3 971.8 587.4C973.9 575.2 977.3 556.1 981.6 532.5C991.7 477.3 993.7 470.7 995.3 453.5C999.7 406.6 992.9 366.7 990.8 366.7Z" fill="#6C6D6D"/>
<path d="M673.1 441C671.2 439.7 667.4 437.3 667.8 435.3C668.6 432.1 680.1 431.6 688.4 433C694 433.9 704.2 436.8 714.9 446.9C702.9 448.6 685.6 449.1 673.1 441Z" fill="white" stroke="#191919" stroke-width="2" stroke-miterlimit="10"/>
<path d="M955.4 345.2C935.3 339.3 911.8 366.4 909.7 369C901.7 378.5 899.8 385.3 892.3 403.7C874.1 448.7 864.6 471.4 846.6 483.2C830.5 493.8 813.6 494.2 809.1 494.2C790.2 494.1 774.6 484.7 744.2 465.9C718.6 450 716 445.2 701.2 441.2C693.7 439.2 671.7 433.2 654.6 444.9C643.7 452.3 637 466.1 640 469.6C643.8 474.1 664.2 463.5 664.3 463.9C664.4 464.1 658.4 465.8 653 470.6C650.3 472.9 645.5 477.9 646.6 479.7C648.6 483.1 666.8 467.5 683 473.3C694 477.2 694.6 487.7 707.5 491.8C715.1 494.2 722.3 492.9 726.9 491.6C733.1 500.9 743.6 514.2 759.8 526.3C769.5 533.5 803.7 558.3 851.2 554.6C901.6 550.7 932.2 517.4 941.7 507.1C947.2 501.2 987.1 456.5 981 398.3C980.1 388.8 976.2 351.4 955.4 345.2Z" fill="white" stroke="#191919" stroke-width="2" stroke-miterlimit="10"/>
<path opacity="0.25" d="M953.2 345.2C945.6 347.7 955.1 374.8 947.4 410.3C940.1 444.4 920.9 467.4 912.2 477.9C900.5 492 885.2 510.4 859.1 519.8C824.1 532.4 784.8 523.5 758.5 507C750.7 502 744.1 489.1 726.6 479C719 474.6 712.9 472.4 705.6 469.7C688 463.3 672.2 457.5 656.1 462.6C648.4 465 641.5 469.6 641.9 470.4C642.3 471.3 651.2 468.4 659.2 465.7C648.5 475.8 646.5 478.9 647 479.7C647.6 480.5 650.8 478.4 658.3 475.8C666.5 472.9 672.2 471 678.8 472.6C682.1 473.4 684.5 474.9 686 475.8C691.5 479.2 692.4 482.5 697.8 486.4C701.1 488.8 704.1 490 705.7 490.6C709 491.9 716 494 725.9 492.2C732.7 502 764.2 545.4 819.5 553.4C848 557.5 870.5 550.5 879.4 547.6C928.2 531.8 952.9 494 959.3 483.5C979.1 451.1 992.6 400.5 972.2 364.1C967.4 355 958.4 343.5 953.2 345.2Z" fill="#6C6D6D"/>
<path d="M641.8 469.9C647.1 464.4 653.3 460.4 660.5 458C661.9 457.5 661.3 455.4 659.9 455.8C652.4 458.4 645.7 462.6 640.2 468.3C639.2 469.4 640.8 471 641.8 469.9Z" fill="#191919"/>
<path d="M645.4 456.5C650.7 450.6 658.1 448.3 665.5 446.2C666.9 445.8 666.3 443.6 664.9 444C657.2 446.3 649.4 448.8 643.9 454.9C642.8 456 644.4 457.5 645.4 456.5Z" fill="#191919"/>
<path opacity="0.29" d="M977.9 388.2C974.5 398.6 969 413.6 960.9 431C944.8 465.3 930.3 496.2 902 518.1C867.1 545.1 825.3 547.4 801.8 546.3C818.3 553 832 554.4 840.7 554.6C906.9 556 953.3 493.3 967.7 465.1C970.2 460.1 975.4 449.7 978.4 434.9C982.3 415 980 398.3 977.9 388.2Z" fill="#6C6D6D"/>
<path opacity="0.26" d="M685.4 472.3C691 476.2 698.9 480.8 709 484.4C717 487.2 724.3 488.6 730.1 489.3C714 494.6 706.5 492.5 702.6 489.3C700.2 487.3 697.7 483.6 690.2 476.7C688.3 474.8 686.6 473.3 685.4 472.3Z" fill="#6C6D6D"/>
<path d="M800.4 143.5C799.3 149.9 798.2 156.3 797.3 163C793.4 190.2 791.8 215.9 791.7 239.8C797.2 239.2 802.6 238.6 808.1 238.1C807.5 243.4 805.8 262.8 818.2 282C829.9 300.1 846.7 306.7 851.9 308.5C851.3 318.3 850.8 328 850.2 337.8C861 328.2 875.7 316.9 894.4 306.8C908.7 299.1 922.2 293.8 933.7 290.2C920.8 274.2 915.9 259.1 913.8 250.4C910.2 235.4 910.9 222.5 911.6 211.1C912.3 199.4 914 189.7 915.5 182.9C920.2 161.5 907.9 127.6 883.4 115.4C859.2 103.3 823.1 113.5 800.4 143.5Z" fill="white" stroke="#161616" stroke-width="2" stroke-miterlimit="10"/>
<path d="M805.8 238.8C808.6 238.4 811.5 238.1 814.3 237.8C815.3 237.7 815.3 236.2 814.3 236.3C811.3 236.6 808.4 237 805.4 237.4C804.5 237.4 804.9 238.9 805.8 238.8Z" fill="#161616"/>
<path d="M896 159C883.9 162.1 881.7 172.6 866.4 194.5C850.9 216.7 841.1 230.6 823.6 238.7C812.3 243.9 806.7 242.5 801.7 249.2C793.1 260.8 798.9 279.9 804 289.7C809.9 301 818.9 307.8 826.3 313.4C833.4 318.7 839.9 322.2 844.5 324.3C839.6 316.8 839.3 314.5 839.9 313.8C841.5 312.2 848.3 320.8 856.3 319.7C858.6 319.4 862.7 318.1 871.8 303.8C878 294.1 882.2 287.4 885 277.8C891.1 257.2 882.5 251.6 885 224.5C885.4 220.4 888.2 188.3 899.6 186.2C903.7 185.4 907.9 188.8 909.9 191.4C914.1 196.9 913.6 205.7 908.4 213.3C910.1 212.1 926.4 201.1 926.2 183.2C926.2 180.4 926.1 170.1 918.3 163.4C909.4 155.8 897 158.8 896 159Z" fill="#161616" stroke="#161616" stroke-width="2" stroke-miterlimit="10"/>
<path d="M815.4 204.5C817.72 204.5 819.6 201.142 819.6 197C819.6 192.858 817.72 189.5 815.4 189.5C813.08 189.5 811.2 192.858 811.2 197C811.2 201.142 813.08 204.5 815.4 204.5Z" fill="#161616"/>
<path d="M783.4 208C785.72 208 787.6 204.642 787.6 200.5C787.6 196.358 785.72 193 783.4 193C781.08 193 779.2 196.358 779.2 200.5C779.2 204.642 781.08 208 783.4 208Z" fill="#161616"/>
<path d="M777.1 188.2C779.8 185.1 784 184.8 787 187.8C788.4 189.2 790.5 187 789.1 185.7C785 181.7 778.7 181.8 774.9 186.1C773.8 187.6 775.9 189.7 777.1 188.2Z" fill="#161616"/>
<path d="M809.9 183C813.4 180.1 818 180.5 821 183.8C822.3 185.2 824.4 183.1 823.1 181.7C818.9 177.2 812.4 177 807.7 180.9C806.3 182.1 808.4 184.2 809.9 183Z" fill="#161616"/>
<path d="M797 155.4C798.1 148.2 800.9 136.4 808.6 124.2C811.3 119.9 817.1 110.8 826.3 104.6C843.9 92.9 871 93.8 890.7 108.2C910 122.3 919.6 147.5 915.4 172.5C875.9 166.9 836.5 161.2 797 155.4Z" fill="#5222D0"/>
<path d="M732.4 156.3C793.1 164.1 853.9 171.9 914.6 179.6C920.3 180.3 920.3 171.3 914.6 170.6C853.9 162.8 793.1 155 732.4 147.3C726.7 146.5 726.7 155.5 732.4 156.3Z" fill="#161616"/>
<path d="M848.4 97.3C864 100.7 875.8 113.3 877.8 128.4C879.6 141.6 873.8 155 862.8 163.2C880.1 165.5 897.5 167.9 914.8 170.2C915.7 165.6 916.5 158.6 915.4 150.4C912.8 131.2 901.7 118.9 898.1 115.2C894.2 111.2 880.4 97.8 859.9 96.6C855.2 96.4 851.2 96.8 848.4 97.3Z" fill="#321693"/>
</svg>
